<?xml version="1.0"?>
<svg xmlns="http://www.w3.org/2000/svg" xmlns:xlink="http://www.w3.org/1999/xlink" version="1.1" id="Capa_1" x="0px" y="0px" viewBox="0 0 246.439 246.439" style="enable-background:new 0 0 246.439 246.439;" xml:space="preserve" width="512px" height="512px"><g><g>
	<path d="M205.275,49.72L173.22,0l-32.056,49.72h15.556V64.53c-10-5.99-21.874-9.219-33.833-9.219   c-37.169,0-67.325,30.239-67.325,67.408c0,2.044,0.373,56.788,0.465,74H41.164l32.056,49.72l32.056-49.72H88.72v-15.811   c10,5.991,22.207,9.219,34.167,9.219c37.17,0,67.492-30.239,67.492-67.408c0-2.041-0.207-55.936-0.299-73H205.275z    M123.053,163.831c-22.705,0-41.111-18.406-41.111-41.111c0-22.705,18.406-41.111,41.111-41.111s41.111,18.406,41.111,41.111   C164.164,145.425,145.758,163.831,123.053,163.831z" data-original="#000000" class="active-path" data-old_color="#ffffff" fill="#ffffff"/>
	<path d="M137.187,122.329c-2.837-2.542-7.057-4.485-12.555-5.777c-4.18-0.96-5.921-2.043-6.605-2.619   c-0.915-0.753-1.342-1.733-1.342-3.103c-0.015-1.671,0.44-2.786,1.49-3.663c1.121-0.956,2.9-1.447,5.166-1.447h0.131   c1.967,0,2.633,0.389,3.682,1.309c1.008,0.885,1.662,2.399,1.953,4.567l0.368,2.274l10.86-0.069l-0.1-2.812   c-0.25-4.709-2.055-8.501-5.383-11.286c-2.041-1.663-3.856-2.812-6.483-3.435l-0.026-6.037l-11.263,0.077l0.047,6.267   c-2.398,0.677-4.545,1.795-6.395,3.332c-3.418,2.826-5.209,6.648-5.18,11.053c0.021,3.907,1.439,7.224,4.224,9.866   c2.556,2.393,6.348,4.187,11.269,5.332c4.763,1.116,6.958,2.287,7.955,3.068c1.159,0.916,1.677,2.049,1.677,3.672   c0,2.136-0.584,3.646-1.843,4.755c-1.329,1.183-3.33,1.792-5.929,1.813c-2.602,0-3.681-0.559-5.014-1.755   c-1.272-1.103-1.883-2.658-1.919-4.936l-0.094-2.622l-10.823,0.039l-0.297,3.79l0.003,0.108c0.118,3.977,1.94,7.513,5.448,10.535   c2.41,1.994,4.466,3.366,7.191,4.109l0.046,7.134l11.266-0.03l-0.053-7.121c2.979-0.746,5.553-2.071,7.653-3.936   c3.662-3.129,5.505-7.188,5.477-12.055C141.79,128.648,140.2,125.055,137.187,122.329z" data-original="#000000" class="active-path" data-old_color="#ffffff" fill="#ffffff"/>
</g></g> </svg>
