<?xml version="1.0"?>
<svg xmlns="http://www.w3.org/2000/svg" height="512px" viewBox="-91 0 512 512" width="512px"><g><path d="m0 346c0 90.980469 74.019531 166 165 166s165-75.019531 165-166-74.019531-165-165-165-165 74.019531-165 165zm180-90v22.210938c17.339844 6.253906 29.839844 22.714843 29.839844 42.183593 0 8.292969-6.710938 15-15 15-8.292969 0-15-6.707031-15-15 0-8.277343-6.726563-15-15-15-8.277344 0-15 6.722657-15 15 0 8.277344 6.722656 15 15 15 24.8125 0 45 20.1875 45 45 0 19.46875-12.5 35.929688-29.839844 42.1875v13.417969c0 8.289062-6.710938 15-15 15s-15-6.710938-15-15v-13.320312c-17.503906-6.164063-30.160156-22.695313-30.160156-42.285157 0-8.289062 6.707031-15 15-15 8.289062 0 15 6.710938 15 15 0 8.277344 6.722656 15 15 15 8.273437 0 15-6.722656 15-15 0-8.277343-6.726563-15-15-15-24.816406 0-45-20.183593-45-45 0-19.589843 12.65625-36.117187 30.160156-42.285156v-22.109375c0-8.289062 6.710938-15 15-15s15 6.710938 15 15zm0 0" data-original="#000000" class="active-path" data-old_color="#ffffff" fill="#ffffff"/><path d="m165 0c-3.839844 0-7.675781 1.464844-10.605469 4.394531l-59.996093 60c-4.292969 4.292969-5.582032 10.738281-3.25 16.347657 2.3125 5.609374 7.792968 9.257812 13.855468 9.257812h29.996094v63.554688c9.804688-1.523438 19.773438-2.554688 30-2.554688s20.195312 1.03125 30 2.554688v-63.554688h29.996094c6.0625 0 11.542968-3.648438 13.855468-9.257812 2.332032-5.609376 1.042969-12.054688-3.25-16.347657l-59.996093-60c-2.929688-2.929687-6.765625-4.394531-10.605469-4.394531zm0 0" data-original="#000000" class="active-path" data-old_color="#ffffff" fill="#ffffff"/></g> </svg>
